<?xml version="1.0" encoding="UTF-8"?>
<svg version="1.1" xmlns="http://www.w3.org/2000/svg" width="512" height="512">
<path d="M0 0 C11.41480218 10.6719341 19.94450886 24.87160069 21.09765625 40.65234375 C21.53224305 53.68840665 18.76987958 63.26379216 10.8125 73.75 C8.88167888 75.77736217 7.15126609 77.17269263 4.8125 78.75 C4.1525 78.75 3.4925 78.75 2.8125 78.75 C2.77382813 77.698125 2.77382813 77.698125 2.734375 76.625 C2.23799593 68.321932 0.77741729 62.22673802 -5.4375 56.4375 C-11.27227211 51.89108522 -17.15583419 50.13391324 -24.54296875 50.40625 C-34.24880241 51.66786501 -41.62845809 56.02441473 -47.68359375 63.62890625 C-54.78614648 74.06143919 -55.75034432 86.13575096 -53.53125 98.3671875 C-48.85545582 116.46573568 -37.09224853 132.648171 -21.35546875 142.94921875 C-19.65402043 143.92092625 -17.92070065 144.83613057 -16.1875 145.75 C-14.84907287 146.59616268 -13.51590743 147.45069249 -12.1875 148.3125 C-9.60464437 149.95384685 -7.08616066 151.28911593 -4.25 152.4375 C-1.1875 153.75 -1.1875 153.75 -0.1875 155.75 C1.47236956 156.11568008 3.14149101 156.43916587 4.8125 156.75 C6.09719508 157.15444104 7.37543083 157.57968125 8.6484375 158.01953125 C33.08269418 166.37482192 57.18347812 167.95207259 82.8125 167.75 C81.05784392 171.49536455 78.81637177 173.96122029 75.8125 176.75 C75.21824219 177.3378125 74.62398438 177.925625 74.01171875 178.53125 C37.45474868 213.22939108 -24.32788383 220.84598736 -72.37036133 219.66479492 C-123.42219772 217.72494551 -191.2026953 209.80737632 -232.1875 176.75 C-232.5175 176.09 -232.8475 175.43 -233.1875 174.75 C-231.88039063 174.3478125 -231.88039063 174.3478125 -230.546875 173.9375 C-221.75786573 171.0458779 -214.63828092 167.36539794 -207.1875 161.75 C-206.49398437 161.25242187 -205.80046875 160.75484375 -205.0859375 160.2421875 C-179.72560158 140.30875474 -170.61285172 104.42661868 -162.43115234 75.03271484 C-155.28816922 49.51525343 -144.54951276 27.32883022 -125.1875 8.75 C-124.42308594 7.95851562 -123.65867187 7.16703125 -122.87109375 6.3515625 C-90.10169938 -25.41614732 -35.08355514 -29.91166328 0 0 Z " fill="#005E9F" transform="translate(324.1875,150.25)"/>
<path d="M0 0 C0 0.66 0 1.32 0 2 C0.57234375 2.09152344 1.1446875 2.18304688 1.734375 2.27734375 C4.55455705 3.17688458 6.07584262 4.56952241 8.25 6.5625 C8.95640625 7.20316406 9.6628125 7.84382812 10.390625 8.50390625 C11.18726563 9.24447266 11.18726563 9.24447266 12 10 C11.67 10.66 11.34 11.32 11 12 C10.5153125 11.52949219 10.030625 11.05898437 9.53125 10.57421875 C2.78986782 4.31251184 -3.02389138 1.31222871 -12.35546875 1.65625 C-22.06130241 2.91786501 -29.44095809 7.27441473 -35.49609375 14.87890625 C-42.59864648 25.31143919 -43.56284432 37.38575096 -41.34375 49.6171875 C-36.66795582 67.71573568 -24.90474853 83.898171 -9.16796875 94.19921875 C-7.46652043 95.17092625 -5.73320065 96.08613057 -4 97 C-2.66157287 97.84616268 -1.32840743 98.70069249 0 99.5625 C2.58285563 101.20384685 5.10133934 102.53911593 7.9375 103.6875 C11 105 11 105 12 107 C13.65986956 107.36568008 15.32899101 107.68916587 17 108 C18.28469508 108.40444104 19.56293083 108.82968125 20.8359375 109.26953125 C45.27019418 117.62482192 69.37097812 119.20207259 95 119 C93.24534392 122.74536455 91.00387177 125.21122029 88 128 C87.40574219 128.5878125 86.81148438 129.175625 86.19921875 129.78125 C49.64224868 164.47939108 -12.14038383 172.09598736 -60.18286133 170.91479492 C-111.23469772 168.97494551 -179.0151953 161.05737632 -220 128 C-220.33 127.34 -220.66 126.68 -221 126 C-220.01 125.67 -219.02 125.34 -218 125 C-217.67 125.66 -217.34 126.32 -217 127 C-214.06620141 127.66900428 -211.221451 128.191877 -208.25 128.625 C-206.91255737 128.82065552 -206.91255737 128.82065552 -205.5480957 129.02026367 C-190.70218206 131.00879889 -175.73205469 130.72560262 -161 128 C-160.00226563 127.81695312 -159.00453125 127.63390625 -157.9765625 127.4453125 C-135.23184562 122.50611125 -115.58086255 108.73656037 -102 90 C-98.49432264 84.53408702 -95.29138397 79.08821829 -93 73 C-90.21217692 75.78782308 -89.79070901 79.04193355 -88.8125 82.75 C-82.12683778 106.40945515 -67.7052892 123.69285891 -46.58984375 136.12109375 C-29.62105039 145.28300599 -10.28374026 150.149362 9 149 C7.85660156 148.57074219 6.71320313 148.14148438 5.53515625 147.69921875 C4.80184082 147.42384277 4.06852539 147.1484668 3.31298828 146.86474609 C1.8413624 146.31455622 0.36850639 145.76763729 -1.10595703 145.22509766 C-27.84881361 135.37576181 -53.13451307 120.71509299 -65.93017578 94.0625 C-74.20326233 75.6839408 -76.65388974 53.74450514 -70.31640625 34.3125 C-64.23563934 19.01134172 -56.16373518 6.48023398 -41 -1 C-27.62859215 -6.54665807 -13.01164798 -7.05820527 0 0 Z " fill="#00407C" transform="translate(312,199)"/>
<path d="M0 0 C11.41480218 10.6719341 19.94450886 24.87160069 21.09765625 40.65234375 C21.56504884 54.67246404 18.15867285 65.37451694 8.77734375 76.0703125 C6.8125 77.75 6.8125 77.75 3.8125 77.75 C4.04646484 76.25533203 4.04646484 76.25533203 4.28515625 74.73046875 C5.98382406 62.67628597 5.90592449 53.03625193 -1.1875 42.75 C-8.15929803 33.55604736 -19.05074043 29.43225057 -30.1875 27.75 C-47.32892627 26.49616822 -63.67661227 30.1947971 -76.98095703 41.55883789 C-90.10670257 53.47158059 -98.09842024 68.664841 -105.99609375 84.28125 C-117.2363044 106.43939163 -130.72929328 129.66793736 -150.1875 145.75 C-151.1775 145.75 -152.1675 145.75 -153.1875 145.75 C-153.455625 146.389375 -153.72375 147.02875 -154 147.6875 C-155.1875 149.75 -155.1875 149.75 -158.1875 150.75 C-158.93 151.513125 -159.6725 152.27625 -160.4375 153.0625 C-164.09536838 156.637235 -167.87474135 159.75 -173.1875 159.75 C-173.1875 160.41 -173.1875 161.07 -173.1875 161.75 C-177.04506507 163.90305957 -179.73879785 165.14253254 -184.1875 164.75 C-184.1875 165.41 -184.1875 166.07 -184.1875 166.75 C-186.8275 167.08 -189.4675 167.41 -192.1875 167.75 C-192.1875 168.41 -192.1875 169.07 -192.1875 169.75 C-194.4975 169.75 -196.8075 169.75 -199.1875 169.75 C-199.1875 170.41 -199.1875 171.07 -199.1875 171.75 C-202 172.375 -202 172.375 -205.1875 172.75 C-206.1775 172.09 -207.1675 171.43 -208.1875 170.75 C-204.04392557 167.92588782 -200.0356442 165.59386577 -195.3125 163.875 C-189.5988751 161.6962977 -185.03863991 158.42155517 -180.1875 154.75 C-179.45917969 154.22664062 -178.73085937 153.70328125 -177.98046875 153.1640625 C-165.17921068 143.70727726 -154.7333134 131.76365346 -147.1875 117.75 C-146.44085278 116.4355898 -145.69087805 115.12306391 -144.9375 113.8125 C-144.36 112.801875 -143.7825 111.79125 -143.1875 110.75 C-142.5275 110.75 -141.8675 110.75 -141.1875 110.75 C-141.05214844 110.20214844 -140.91679687 109.65429688 -140.77734375 109.08984375 C-139.16760768 103.16177378 -136.90018487 97.78839289 -134.22387695 92.26538086 C-131.80512125 87.21687029 -129.67289437 82.08407359 -127.58203125 76.8918457 C-116.08577526 48.44082296 -99.1610456 25.1716371 -70.1875 12.75 C-52.06407234 6.27801386 -32.47474526 5.38980035 -14.6875 13.4375 C-13.1781878 14.18993652 -11.673903 14.9532628 -10.1875 15.75 C-16.82313163 6.36858976 -26.58041707 1.6462664 -37.68359375 -0.58984375 C-62.05507085 -4.62550399 -85.00825788 1.92486118 -105.1875 15.75 C-128.05201312 32.93535851 -140.63014245 55.52551892 -152.25195312 81.1496582 C-157.35328718 92.32600908 -163.11928664 103.07312174 -169.1875 113.75 C-170.1775 113.75 -171.1675 113.75 -172.1875 113.75 C-171.6401726 106.78401491 -170.13514389 100.63811856 -168 94 C-167.35743859 91.95894194 -166.71685466 89.91726041 -166.078125 87.875 C-165.75779297 86.85148437 -165.43746094 85.82796875 -165.10742188 84.7734375 C-163.98060214 81.07000448 -162.96643199 77.3421391 -161.95849609 73.60498047 C-155.14149893 48.54041819 -144.08243598 26.86486981 -125.1875 8.75 C-124.0428125 7.56470703 -124.0428125 7.56470703 -122.875 6.35546875 C-90.10489205 -25.41438881 -35.08607807 -29.91381428 0 0 Z " fill="#24B4D8" transform="translate(324.1875,150.25)"/>
<path d="M0 0 C3.39962196 2.89984847 5.94961033 6.15518846 8.28515625 9.94921875 C7.56457031 9.66046875 6.84398437 9.37171875 6.1015625 9.07421875 C5.17214844 8.70296875 4.24273437 8.33171875 3.28515625 7.94921875 C2.46917969 7.61921875 1.65320313 7.28921875 0.8125 6.94921875 C-18.36021134 -0.45381911 -37.19633349 0.86114793 -56.08984375 8.26171875 C-86.27094051 21.87199535 -100.54181798 48.88487714 -112.51367188 78.06738281 C-114.37952295 82.54390845 -116.43019785 86.91910671 -118.5 91.3046875 C-120.40564529 95.4529893 -122.07968669 99.68819181 -123.71484375 103.94921875 C-124.37484375 103.94921875 -125.03484375 103.94921875 -125.71484375 103.94921875 C-126.08609375 104.93921875 -126.08609375 104.93921875 -126.46484375 105.94921875 C-127.45312164 108.32108568 -128.47670326 110.6352889 -129.58984375 112.94921875 C-130.05003906 113.90828125 -130.05003906 113.90828125 -130.51953125 114.88671875 C-132.01317508 117.46398654 -133.8236057 119.64992746 -135.71484375 121.94921875 C-136.27042969 122.68140625 -136.82601562 123.41359375 -137.3984375 124.16796875 C-150.34236172 141.00371874 -165.95015341 153.8819982 -185.71484375 161.94921875 C-187.05497872 162.60210502 -188.39225903 163.2614747 -189.71484375 163.94921875 C-189.05484375 164.60921875 -188.39484375 165.26921875 -187.71484375 165.94921875 C-195.14125217 167.5580345 -202.11985414 168.21364779 -209.71484375 167.94921875 C-209.71484375 167.28921875 -209.71484375 166.62921875 -209.71484375 165.94921875 C-209.19277344 165.74167969 -208.67070312 165.53414062 -208.1328125 165.3203125 C-183.13663544 154.85781457 -167.88455511 133.30073853 -157.65234375 108.94921875 C-156.99576011 107.28675781 -156.34522596 105.62179064 -155.71484375 103.94921875 C-155.38484375 104.93921875 -155.05484375 105.92921875 -154.71484375 106.94921875 C-153.72484375 106.94921875 -152.73484375 106.94921875 -151.71484375 106.94921875 C-151.47378906 106.11648438 -151.23273438 105.28375 -150.984375 104.42578125 C-149.5202961 100.41645749 -147.55258411 96.99543298 -145.40234375 93.32421875 C-141.19043415 85.9697809 -137.54681392 78.43371732 -134.0456543 70.7175293 C-127.08852042 55.38648406 -119.91779109 40.66785896 -108.71484375 27.94921875 C-107.99554688 27.11003906 -107.27625 26.27085937 -106.53515625 25.40625 C-82.00098211 -2.65099759 -34.44364087 -23.94949991 0 0 Z " fill="#0080C1" transform="translate(306.71484375,157.05078125)"/>
<path d="M0 0 C0.33 0 0.66 0 1 0 C1.08636719 0.92039063 1.17273438 1.84078125 1.26171875 2.7890625 C3.95987505 27.09722293 15.72176071 48.76281192 34.66455078 64.37158203 C56.39980538 81.66302531 81.23039112 91.2614661 109 92.5625 C109.87011719 92.60568359 110.74023438 92.64886719 111.63671875 92.69335938 C113.75768219 92.79824218 115.87882433 92.89950075 118 93 C118 93.33 118 93.66 118 94 C93.45235012 98.76488178 68.69325719 96.62408385 46 86 C45.05125 85.56042969 44.1025 85.12085938 43.125 84.66796875 C23.83404482 74.93837362 8.30378125 58.58132493 1 38.18359375 C-2.92989948 25.67239032 -3.28118094 12.71457613 0 0 Z " fill="#0071B2" transform="translate(255,236)"/>
<path d="M0 0 C5.70700673 0.52047901 9.98049883 2.76680551 14.9375 5.4375 C16.19820312 6.10749023 16.19820312 6.10749023 17.484375 6.79101562 C23.32424913 9.95021916 28.81645319 13.4369334 34.26171875 17.22583008 C42.07256729 22.57148521 50.56132216 26.74577921 59 31 C59 31.33 59 31.66 59 32 C42.02980717 32.74569423 23.91353072 24.84467598 11.19140625 14.05078125 C6.69413918 9.84210886 2.59418329 5.63735984 0 0 Z " fill="#0069AA" transform="translate(203,320)"/>
<path d="M0 0 C2.65281695 2.5609445 4.94449997 5.15557534 7.125 8.125 C13.52722573 16.40702817 20.44488288 23.07047667 29.4375 28.4609375 C32.76978365 30.46233957 35.86701882 32.70248047 39 35 C38.01 35.495 38.01 35.495 37 36 C29.56769444 32.58399802 23.24531924 27.18518942 17 22 C16.17371094 21.37222656 15.34742188 20.74445313 14.49609375 20.09765625 C11.75705923 17.79583851 9.62103093 15.34495412 7.375 12.5625 C6.61960937 11.63566406 5.86421875 10.70882813 5.0859375 9.75390625 C0 3.03932584 0 3.03932584 0 0 Z " fill="#033564" transform="translate(276,266)"/>
<path d="M0 0 C-1.75 3.875 -1.75 3.875 -4 5 C-4 4.34 -4 3.68 -4 3 C-12.25 2.67 -20.5 2.34 -29 2 C-29 1.67 -29 1.34 -29 1 C-9.65957447 -0.19148936 -9.65957447 -0.19148936 0 0 Z " fill="#083360" transform="translate(407,318)"/>
<path d="M0 0 C2 1 2 1 2 1 Z M0 2 C0.66 2.66 1.32 3.32 2 4 C-5.42640842 5.60881575 -12.40501039 6.26442904 -20 6 C-20 5.67 -20 5.34 -20 5 C-19.02417969 4.79503906 -18.04835938 4.59007812 -17.04296875 4.37890625 C-15.77066406 4.10949219 -14.49835938 3.84007812 -13.1875 3.5625 C-11.92292969 3.29566406 -10.65835938 3.02882813 -9.35546875 2.75390625 C-2.41585535 1.19471488 -2.41585535 1.19471488 0 2 Z " fill="#0589C8" transform="translate(117,319)"/>
<path d="M0 0 C0 4.0521288 -1.50488362 5.09105379 -4.1875 8.0625 C-4.96480469 8.94035156 -5.74210937 9.81820313 -6.54296875 10.72265625 C-8.99164656 12.99225746 -10.84446143 14.00793903 -14 15 C-10.49192224 10.81682823 -6.91723515 6.81136393 -3 3 C-2.401875 2.401875 -1.80375 1.80375 -1.1875 1.1875 C-0.795625 0.795625 -0.40375 0.40375 0 0 Z " fill="#066DAC" transform="translate(130,299)"/>
<path d="M0 0 C0 3 0 3 -1.3125 4.625 C-4.89714953 7.54582554 -8.58719618 7.08326045 -13 7 C-10.31767339 5.21178226 -7.69711039 3.79857396 -4.8125 2.375 C-3.91144531 1.92898438 -3.01039062 1.48296875 -2.08203125 1.0234375 C-1.39496094 0.68570312 -0.70789063 0.34796875 0 0 Z " fill="#076FA8" transform="translate(110,317)"/>
<path d="M0 0 C0.8125 1.6875 0.8125 1.6875 1 4 C-1.4375 6.75 -1.4375 6.75 -4 9 C-2.94124926 5.59687262 -1.99097846 2.98646769 0 0 Z " fill="#06639D" transform="translate(143,279)"/>
</svg>
